<svg width="65" height="60" viewBox="0 0 65 60" fill="none" xmlns="http://www.w3.org/2000/svg">
<path d="M34.3405 14.3374C34.3881 14.3421 34.4312 14.3467 34.4766 14.3625C34.7271 14.4497 35.6064 14.9476 35.708 15.1634C35.6973 15.2584 35.6661 15.2889 35.6118 15.3662C35.5953 15.3638 35.5787 15.3618 35.5622 15.359C35.3514 15.3221 34.3833 14.7336 34.2972 14.5534C34.2559 14.4669 34.3035 14.4138 34.3405 14.3374Z" fill="#16365A"/>
<path d="M41.1773 12.4717C41.2051 12.4787 41.2437 12.4873 41.2692 12.4989C41.3529 12.5368 41.3636 12.5624 41.4 12.6406C41.3483 12.8669 40.8129 13.8501 40.6405 14.0014C40.5506 13.9742 40.471 13.9468 40.4209 13.8636C40.4255 13.6317 41.008 12.6797 41.1773 12.4717Z" fill="#16365A"/>
<path d="M37.3475 12.189C37.4185 12.1916 37.4638 12.1963 37.5281 12.227C37.6349 12.3589 37.6832 12.5198 37.7327 12.6793C37.8173 12.9527 38.0408 13.5038 37.9037 13.7592C37.8379 13.7679 37.7831 13.7682 37.7169 13.7616C37.6942 13.7375 37.6875 13.7327 37.6687 13.7C37.5346 13.4671 37.3037 12.6453 37.3042 12.3601C37.3043 12.3009 37.3278 12.2437 37.3475 12.189Z" fill="#16365A"/>
<path d="M43.7168 15.1968C43.8204 15.2079 43.8355 15.2104 43.9174 15.2732C43.9345 15.318 43.9556 15.3387 43.9359 15.3863C43.8541 15.5836 42.8152 15.9276 42.5678 16.0372C42.4892 16.0238 42.4263 16.0101 42.3686 15.9533C42.3258 15.9112 42.339 15.9246 42.3404 15.8588C42.5598 15.5494 43.3456 15.3468 43.7168 15.1968Z" fill="#16365A"/>
<path d="M42.3397 18.495C42.4225 18.4936 42.4997 18.5091 42.5781 18.5347C42.8098 18.6102 43.7276 18.9228 43.82 19.0945C43.8287 19.1825 43.7957 19.2285 43.7527 19.3009C43.6954 19.2996 43.6347 19.296 43.5784 19.285C43.3559 19.2413 42.3653 18.8914 42.253 18.7292C42.2441 18.6371 42.2952 18.5715 42.3397 18.495Z" fill="#16365A"/>
<path d="M38.6816 45.2859C38.7733 45.2776 38.8783 45.2587 38.9687 45.2803C39.1236 45.3173 39.5472 46.0795 39.6569 46.2488C39.8338 45.9552 39.9973 45.6516 40.1664 45.3534L40.5772 45.3502C40.4614 45.5694 40.3382 45.7767 40.1989 45.982L39.8058 46.5453C39.8189 46.688 39.8672 46.9176 39.8216 47.0532C39.7933 47.1375 39.7585 47.1438 39.6833 47.1733C39.5939 47.1599 39.5812 47.1582 39.5131 47.1003C39.4365 46.9315 39.478 46.6808 39.4798 46.4953C39.1998 46.1012 38.9419 45.693 38.6816 45.2859Z" fill="#16365A"/>
<path d="M36.8556 45.2947C37.0191 45.2822 37.1854 45.3191 37.3398 45.3718C37.4477 45.4086 37.5117 45.4524 37.5645 45.5546C37.5482 45.6615 37.5029 45.6801 37.4253 45.7529C37.3951 45.7363 37.365 45.7195 37.3342 45.7039C37.1187 45.5944 36.8531 45.5363 36.6183 45.621C36.454 45.6801 36.3249 45.8028 36.2519 45.9595C36.2419 45.9812 36.233 46.0032 36.2252 46.0258C36.2175 46.0483 36.2108 46.0712 36.2053 46.0943C36.1998 46.1175 36.1955 46.1409 36.1924 46.1645C36.1892 46.1881 36.1873 46.2118 36.1865 46.2356C36.1858 46.2594 36.1862 46.2832 36.1879 46.3069C36.1895 46.3307 36.1923 46.3543 36.1963 46.3778C36.2003 46.4013 36.2054 46.4245 36.2118 46.4475C36.2181 46.4705 36.2256 46.4931 36.2342 46.5153C36.2959 46.6755 36.418 46.8056 36.5785 46.8712C36.8381 46.9772 37.115 46.8943 37.359 46.7898L37.404 46.7588C37.4792 46.7643 37.4792 46.772 37.5349 46.8241C37.5503 46.9071 37.5508 46.9205 37.4952 46.9924C37.4187 47.0916 37.2517 47.1424 37.134 47.1631C36.8244 47.2175 36.454 47.1838 36.1946 46.9961C35.9985 46.8541 35.887 46.644 35.8543 46.4076C35.8495 46.3746 35.8464 46.3414 35.845 46.3081C35.8437 46.2747 35.8441 46.2414 35.8462 46.2081C35.8483 46.1748 35.8521 46.1417 35.8577 46.1088C35.8632 46.0759 35.8705 46.0434 35.8795 46.0112C35.8885 45.9791 35.8991 45.9475 35.9113 45.9164C35.9236 45.8853 35.9375 45.8549 35.9529 45.8253C35.9684 45.7957 35.9853 45.7669 36.0038 45.739C36.0222 45.7111 36.042 45.6842 36.0633 45.6584C36.2756 45.4026 36.5371 45.3228 36.8556 45.2947Z" fill="#16365A"/>
<path d="M30.0358 45.3604C30.3237 45.3613 31.0283 45.2869 31.2646 45.3896C31.3442 45.4241 31.3501 45.4377 31.3787 45.5123L31.342 45.5699C31.0482 45.7019 30.5744 45.6367 30.2541 45.6329C30.2438 45.802 30.2501 45.9718 30.2526 46.1411C30.5315 46.1545 30.8413 46.0924 31.1128 46.145C31.1998 46.162 31.2323 46.1793 31.2816 46.2507L31.2578 46.3234C31.0367 46.4745 30.5126 46.4002 30.2384 46.3955C30.2236 46.5815 30.2331 46.7755 30.2318 46.9625C30.5487 46.9623 30.9893 46.8986 31.286 46.9899C31.36 47.0126 31.3924 47.0333 31.43 47.0992L31.3883 47.154C31.0381 47.3127 30.3064 47.2353 29.9007 47.2366C29.9021 46.8817 29.852 45.6426 29.9465 45.3854L30.0358 45.3604Z" fill="#16365A"/>
<path d="M27.4145 45.353C27.8145 45.3143 28.0266 45.3785 28.3688 45.5786L28.3496 45.6104C28.3243 45.6518 28.2475 45.7902 28.197 45.7972C28.0501 45.8174 27.8002 45.5448 27.4618 45.6401C27.2828 45.6906 27.1278 45.8408 27.0417 46.001C26.9535 46.1647 26.9493 46.3519 27.0133 46.5245C27.0218 46.5469 27.0313 46.5688 27.042 46.5902C27.0527 46.6117 27.0643 46.6326 27.077 46.6529C27.0897 46.6732 27.1034 46.6928 27.118 46.7118C27.1326 46.7308 27.1482 46.7491 27.1646 46.7666C27.1811 46.784 27.1983 46.8007 27.2164 46.8165C27.2345 46.8323 27.2533 46.8472 27.2728 46.8612C27.2924 46.8752 27.3126 46.8882 27.3334 46.9002C27.3542 46.9122 27.3756 46.9232 27.3975 46.9331C27.5602 47.0074 27.7646 47.0309 27.9323 46.9584C28.0412 46.9113 28.1209 46.8256 28.158 46.7134C28.1889 46.6199 28.1697 46.5713 28.1265 46.4909C28.0456 46.4455 27.9808 46.4592 27.8922 46.4676L27.7062 46.4856C27.7097 46.3761 27.6953 46.3283 27.7638 46.2398C27.9676 46.1627 28.2069 46.1943 28.424 46.1918C28.4322 46.4694 28.4313 46.7471 28.4214 47.0247C28.3462 47.0663 28.2692 47.1042 28.1903 47.1383C27.8851 47.2706 27.5327 47.2988 27.2216 47.1677C27.193 47.1558 27.1651 47.1425 27.1378 47.1278C27.1104 47.1131 27.0839 47.0971 27.0582 47.0798C27.0325 47.0625 27.0077 47.044 26.9838 47.0243C26.9599 47.0046 26.937 46.9838 26.9152 46.9619C26.8934 46.9399 26.8727 46.917 26.8532 46.893C26.8336 46.8691 26.8153 46.8442 26.7983 46.8185C26.7812 46.7927 26.7654 46.7662 26.751 46.739C26.7365 46.7117 26.7235 46.6838 26.7118 46.6552C26.6136 46.4121 26.612 46.1261 26.7253 45.8876C26.8675 45.5883 27.1162 45.4577 27.4145 45.353Z" fill="#16365A"/>
<path d="M24.4214 45.3551C24.5041 45.354 24.5693 45.3486 24.6448 45.3887C24.8321 45.7526 25.2834 46.7861 25.3738 47.1766L25.3428 47.2159C25.2773 47.2215 25.212 47.231 25.1479 47.2108C25.0613 47.1834 25.0254 47.1241 24.9931 47.046C24.9537 46.9509 24.91 46.8595 24.8646 46.7672C24.6982 46.7629 24.5308 46.7659 24.3643 46.7658L23.9446 46.7733C23.8995 46.8726 23.8655 46.9849 23.8112 47.0788C23.7728 47.1455 23.7178 47.1768 23.6423 47.1878C23.5618 47.1996 23.4924 47.1963 23.4282 47.1493C23.5198 46.9721 24.2595 45.4361 24.3097 45.3987C24.3417 45.375 24.3841 45.3697 24.4214 45.3551Z" fill="#16365A"/>
<path d="M24.4265 45.7107C24.4385 45.7235 24.4524 45.7347 24.4626 45.7491C24.5349 45.8521 24.7721 46.383 24.7641 46.499L24.5135 46.5038L24.0752 46.5058L24.4265 45.7107Z" fill="#FEFEFE"/>
<path d="M32.7698 45.2385C33.0329 45.3598 33.8709 46.3318 34.1052 46.5746C34.1094 46.2675 33.9937 45.5324 34.1921 45.3049C34.2717 45.28 34.2763 45.277 34.3549 45.3033C34.3935 45.3512 34.4154 45.3906 34.4244 45.4511C34.4473 45.6048 34.4163 45.7812 34.415 45.9375C34.4088 46.355 34.4128 46.7724 34.4268 47.1897C34.359 47.1821 34.291 47.1767 34.2315 47.1406C33.9596 46.9753 33.2553 46.1864 33.029 45.9146C33.0324 46.3128 33.0697 46.7477 33.0187 47.1414C32.9222 47.1635 32.8455 47.161 32.7472 47.1522L32.7221 47.11C32.723 46.781 32.6507 45.4596 32.7698 45.2385Z" fill="#16365A"/>
<path d="M48.2397 46.111C49.1464 46.0912 50.0551 46.0995 50.9621 46.0969C50.9614 46.2342 50.9508 46.3717 50.9432 46.5088C48.978 46.464 47.0054 46.4845 45.0396 46.4915C44.1491 46.5011 43.2546 46.48 42.3651 46.5204L42.3623 46.1224L48.2397 46.111Z" fill="#16365A"/>
<path d="M13.2124 46.1297C16.036 46.1584 18.8658 46.0741 21.6879 46.1396L21.7021 46.5623L16.3242 46.5643C15.2857 46.564 14.2374 46.5347 13.2002 46.5801L13.2124 46.1297Z" fill="#16365A"/>
<path d="M38.4475 14.0563C38.8269 14.0342 39.2004 14.0294 39.5756 14.0994C40.3484 14.2436 41.1033 14.7136 41.5438 15.3639C41.8722 15.8488 42.0991 16.4396 42.1464 17.0236C42.2942 18.8457 40.6822 19.7496 39.4721 20.7972C39.0592 21.1548 38.7063 21.537 38.3507 21.9498C38.1832 22.1441 37.9001 22.4131 37.8487 22.6681C37.8678 22.7285 37.8931 22.7971 37.8965 22.8609C37.9079 23.0747 37.6462 23.2991 37.5048 23.4415C37.3921 23.3814 37.2866 23.3086 37.1797 23.2389C37.0658 23.432 36.948 23.6162 36.8151 23.7969C36.699 23.7276 36.5925 23.6353 36.4539 23.6224L36.4221 23.6564L36.4668 23.6254L36.4023 23.6557L36.4018 23.7132L36.4527 23.7234L36.4135 23.7479C36.4196 23.7594 36.4245 23.7713 36.4317 23.7821C36.727 24.232 38.2012 24.7851 38.7032 24.9222C39.4984 25.1395 40.8303 25.4668 41.5665 25.0492C41.3183 24.9436 41.0738 24.8375 40.8545 24.6793C40.734 24.4145 40.7133 24.1061 40.6373 23.8251C40.5841 23.8033 40.5413 23.7831 40.4952 23.7486C40.5181 23.6121 40.627 23.4761 40.7 23.3591C40.4778 23.3192 40.2675 23.2863 40.0729 23.1644C39.9626 23.0953 39.9102 23.0311 39.8839 22.9039C39.8963 22.8322 39.9088 22.7784 39.9601 22.7234C40.24 22.4228 40.8853 22.091 41.2878 22.0679C41.6056 22.0498 41.8752 22.1192 42.1125 22.3339C43.0813 23.211 42.1146 23.9215 42.1958 24.4851C42.2281 24.7101 42.7277 24.9181 42.9043 25.0629C43.6734 25.6938 44.3407 28.3661 44.4148 29.3518C44.263 29.6228 44.3578 29.9679 44.39 30.2683C44.5115 31.4 44.7319 32.3369 45.1394 33.4048C45.3611 33.9861 45.6931 34.6135 45.7992 35.2253C45.8474 35.5032 45.8133 35.7056 45.7207 35.9652C46.2169 36.0074 46.7698 35.957 47.2505 36.0744C46.7543 36.121 46.2608 36.1836 45.7633 36.2182C43.8009 36.3546 41.8241 36.3762 39.8579 36.4169C35.146 36.4726 30.4346 36.4422 25.7237 36.3257C23.3449 36.2569 20.9657 36.2045 18.5861 36.1685L18.5639 36.1638L18.5527 36.1378C19.0542 36.0067 19.6762 36.0411 20.1962 36.0215L23.3116 35.917C23.1496 35.7222 22.9781 35.542 22.7993 35.3625C22.3464 35.5595 21.9242 35.7046 21.432 35.7644C21.279 35.468 21.1247 35.1729 20.9867 34.8693C21.3158 34.5603 21.6615 34.2584 22.0136 33.9755C21.7121 33.3171 21.5043 32.6447 21.3541 31.9382C21.062 31.8626 20.2685 31.9161 20.0962 31.7585C19.9015 31.5805 19.9497 31.0848 19.9453 30.8358C20.3571 30.6485 20.8087 30.4882 21.1964 30.2576C21.2184 29.6424 21.2589 29.0431 21.3533 28.434C21.1323 28.2124 20.4345 27.8008 20.3822 27.66C20.2928 27.4193 20.5303 26.9775 20.6215 26.7512C21.0337 26.7302 21.4159 26.7468 21.8251 26.8023C22.1547 26.1348 22.514 25.4937 22.884 24.848C22.6992 24.5294 22.3936 24.2689 22.2494 23.9296C22.217 23.8534 22.2136 23.8002 22.2513 23.7264C22.3478 23.5375 22.6547 23.1729 22.8664 23.109C23.1605 23.0203 23.6944 23.4988 23.9506 23.6446C24.4783 23.1841 25.0469 22.8015 25.6175 22.397C25.5299 22.0918 25.2261 21.3709 25.3784 21.0815C25.504 20.8432 25.9933 20.7047 26.2403 20.6236C26.5555 20.9627 26.8125 21.3685 27.0786 21.7466C27.7046 21.5489 28.4413 21.5042 29.0118 21.293C29.0234 20.9774 29.011 20.6607 29.0047 20.3451C28.7682 20.1922 28.5198 20.0396 28.3062 19.8559C27.8292 19.4457 27.5326 18.8802 27.4911 18.2517C27.4478 17.5966 27.6881 16.9828 28.1214 16.4931C28.5639 15.9932 29.1336 15.7034 29.8057 15.6663C30.4928 15.6283 31.1463 15.8419 31.6587 16.3008C31.6882 16.3267 31.717 16.3533 31.7452 16.3807C31.7733 16.4081 31.8007 16.4361 31.8274 16.4648C31.8541 16.4936 31.8801 16.523 31.9053 16.553C31.9305 16.5831 31.9549 16.6138 31.9785 16.645C32.0021 16.6763 32.0249 16.7082 32.0469 16.7407C32.0689 16.7731 32.0901 16.806 32.1104 16.8395C32.1307 16.873 32.1501 16.907 32.1687 16.9415C32.1873 16.976 32.205 17.0109 32.2218 17.0463C32.2386 17.0816 32.2544 17.1174 32.2694 17.1536C32.2844 17.1897 32.2984 17.2262 32.3115 17.2631C32.3246 17.3 32.3367 17.3371 32.3479 17.3746C32.3591 17.4121 32.3693 17.4499 32.3785 17.4879C32.3878 17.5258 32.3961 17.564 32.4034 17.6025C32.4107 17.6409 32.417 17.6794 32.4223 17.7182C32.4277 17.7569 32.432 17.7958 32.4354 17.8347C32.4387 17.8737 32.4411 17.9127 32.4424 17.9517C32.4717 18.6361 32.2444 19.3041 31.699 19.7477C31.5292 19.8858 31.3007 19.9908 31.159 20.1579C30.9515 20.4027 31.0632 21.0327 31.081 21.3369C31.4438 21.3673 31.8077 21.4081 32.1593 21.5052C32.512 21.6027 32.8597 21.7425 33.2221 21.7983C33.4516 21.4115 33.7921 20.9429 34.1603 20.6799C34.4732 20.8022 34.7815 21.0078 35.0183 21.2438C34.8538 21.6694 34.5018 22.1074 34.6312 22.5897C34.7036 22.8593 34.9273 23.0331 35.1605 23.1658C35.2337 23.0598 35.3001 22.9486 35.3688 22.8396C35.3051 22.7967 35.2408 22.7539 35.1802 22.7068C35.0778 22.6271 35.0232 22.5317 35.0106 22.4027C34.9748 22.0337 35.2936 21.6085 35.4289 21.2718C35.4888 21.1229 35.517 20.9713 35.5407 20.8138C35.6193 20.2964 35.6782 19.7768 35.7172 19.255C35.7562 18.7332 35.7753 18.2107 35.7744 17.6874C35.7793 17.0858 35.6472 16.4283 35.7724 15.8402C35.8156 15.6378 36.026 15.3747 36.1568 15.2144C36.7114 14.5344 37.5825 14.142 38.4475 14.0563Z" fill="#16365A"/>
<path d="M35.3723 23.4333C35.6808 23.5232 36.0028 23.7723 36.2756 23.9432C36.2258 24.0217 36.1629 24.0945 36.1054 24.1679C36.0945 24.1646 36.0833 24.162 36.0725 24.1581C35.9168 24.1016 35.2551 23.677 35.2002 23.5404L35.3723 23.4333Z" fill="#FEFEFE"/>
<path d="M35.2856 22.2095C35.5988 22.4226 36.6098 22.8974 36.7911 23.1078L36.7415 23.2262C36.7231 23.2304 36.6975 23.2374 36.6788 23.2374C36.4528 23.2369 35.4959 22.6466 35.2857 22.4803C35.2398 22.3969 35.2715 22.2991 35.2856 22.2095Z" fill="#FEFEFE"/>
<path d="M35.4962 21.6069C35.8811 21.7731 37.2648 22.5566 37.5632 22.8064C37.561 22.896 37.5206 22.9392 37.4744 23.0151C37.3706 23.0321 37.1674 22.8493 37.0665 22.7828C36.5453 22.4393 35.9757 22.1807 35.4457 21.8529C35.4291 21.757 35.4637 21.6961 35.4962 21.6069Z" fill="#FEFEFE"/>
<path d="M37.4375 25.1904C38.2733 25.5191 40.1906 26.0647 41.0398 26.1281C40.8733 26.3212 40.6989 26.5034 40.5193 26.6846C40.3863 26.794 40.2618 26.8741 40.1043 26.9458C39.919 26.8809 39.7394 26.8238 39.5471 26.7826C39.4616 26.6372 39.3807 26.4893 39.3043 26.339C38.9247 26.3961 38.5315 26.5062 38.1681 26.6281C37.9607 26.1304 37.6984 25.6617 37.4375 25.1904Z" fill="#FEFEFE"/>
<path d="M35.7866 21.3148C35.9578 20.3355 36.097 18.8995 36.0979 17.9117C36.0983 17.4008 36.0311 16.8921 36.0263 16.382C36.0218 15.895 36.2052 15.5435 36.5417 15.2021C37.1282 14.6071 37.9735 14.2861 38.8073 14.2787C39.6151 14.2716 40.4183 14.5574 40.9929 15.1288C41.5719 15.7046 41.8772 16.4849 41.8746 17.2939L41.8581 17.2686C41.6747 16.9817 41.5518 16.6598 41.3739 16.3695C40.9439 15.6681 40.218 15.0319 39.395 14.8498C38.7945 14.717 38.1163 14.865 37.6018 15.1925C37.5709 15.212 37.5406 15.2323 37.5106 15.2533C37.4808 15.2743 37.4514 15.2961 37.4226 15.3186C37.3938 15.341 37.3656 15.3642 37.3379 15.388C37.3103 15.4119 37.2833 15.4364 37.2568 15.4616C37.2304 15.4867 37.2046 15.5125 37.1795 15.5389C37.1544 15.5654 37.1299 15.5925 37.1061 15.6201C37.0823 15.6477 37.0592 15.6759 37.0368 15.7047C37.0144 15.7334 36.9927 15.7627 36.9718 15.7925C36.9508 15.8224 36.9307 15.8527 36.9112 15.8835C36.8918 15.9143 36.8732 15.9456 36.8553 15.9774C36.8374 16.0091 36.8204 16.0412 36.8041 16.0738C36.7878 16.1063 36.7724 16.1393 36.7577 16.1726C36.7431 16.2059 36.7293 16.2396 36.7163 16.2736C36.7034 16.3076 36.6913 16.3419 36.68 16.3765C36.6688 16.411 36.6584 16.4459 36.6489 16.481C36.6394 16.5161 36.6307 16.5514 36.623 16.5869C36.5123 17.1033 36.5458 17.6687 36.521 18.1948C36.475 19.1713 36.3407 20.4864 36.0529 21.4127L35.7866 21.3148Z" fill="#FEFEFE"/>
<path d="M43.1808 31.6719C43.2165 31.7134 43.7342 33.0081 43.8308 33.2099C44.0663 33.7019 44.373 34.1635 44.6629 34.6259C44.8112 34.8624 44.9741 35.0944 45.0821 35.3524C44.7923 35.526 44.6609 35.6649 44.5204 35.9671L43.2785 35.9603C42.7593 35.9615 42.2406 35.9481 41.7222 35.9201C41.7411 35.8947 41.7603 35.8694 41.7782 35.8432C42.1778 35.2605 41.7365 33.8838 41.6035 33.2118C42.0975 32.6766 42.6567 32.1795 43.1808 31.6719Z" fill="#FEFEFE"/>
<path d="M29.776 16.0509C29.9011 16.0308 30.0457 16.0419 30.172 16.0534C30.7236 16.1033 31.2465 16.3482 31.5985 16.779C31.9415 17.1988 32.1163 17.7509 32.05 18.2894C31.9622 19.0035 31.5336 19.4453 30.984 19.8639C30.7114 19.6781 30.473 19.5856 30.1424 19.5599C30.0092 19.5642 29.8731 19.566 29.7408 19.5828C29.4582 19.6188 29.3059 19.7321 29.1403 19.954C28.9626 19.854 28.7808 19.75 28.6151 19.6316C28.222 19.351 27.9748 18.9065 27.8981 18.4362C27.8925 18.4028 27.8878 18.3692 27.8839 18.3356C27.88 18.3019 27.877 18.2682 27.8748 18.2344C27.8726 18.2006 27.8713 18.1667 27.8708 18.1328C27.8703 18.0989 27.8707 18.065 27.8719 18.0312C27.8732 17.9973 27.8753 17.9635 27.8782 17.9297C27.8811 17.896 27.8849 17.8623 27.8895 17.8287C27.8941 17.7952 27.8996 17.7617 27.9059 17.7284C27.9122 17.6951 27.9194 17.662 27.9273 17.629C27.9353 17.5961 27.9441 17.5634 27.9537 17.5308C27.9634 17.4983 27.9738 17.4661 27.9851 17.4341C27.9963 17.4021 28.0084 17.3704 28.0213 17.339C28.0341 17.3076 28.0477 17.2765 28.0622 17.2458C28.0765 17.2151 28.0917 17.1847 28.1076 17.1548C28.1236 17.1248 28.1403 17.0952 28.1577 17.0661C28.1752 17.0369 28.1933 17.0082 28.2122 16.98C28.2311 16.9517 28.2506 16.924 28.2709 16.8967C28.6518 16.3774 29.148 16.1477 29.776 16.0509Z" fill="#FEFEFE"/>
<path d="M29.5064 22.6702C29.9066 22.6223 30.3405 22.6351 30.7415 22.6704C32.7224 22.8443 34.4275 23.7781 35.6899 25.2928C35.7281 25.339 35.7657 25.3857 35.8028 25.4328C35.8398 25.4799 35.8762 25.5275 35.9121 25.5756C35.948 25.6236 35.9832 25.6721 36.0179 25.721C36.0525 25.7698 36.0865 25.8191 36.1199 25.8689C36.1533 25.9186 36.1861 25.9687 36.2183 26.0192C36.2504 26.0698 36.282 26.1207 36.3128 26.172C36.3437 26.2233 36.374 26.275 36.4035 26.327C36.4332 26.3791 36.4621 26.4315 36.4904 26.4843C36.5186 26.537 36.5463 26.5901 36.5732 26.6436C36.6002 26.697 36.6265 26.7508 36.6521 26.8049C36.6777 26.859 36.7026 26.9134 36.7269 26.968C36.7511 27.0228 36.7747 27.0778 36.7976 27.1331C36.8204 27.1883 36.8426 27.2439 36.8642 27.2997C36.8856 27.3555 36.9064 27.4116 36.9265 27.4679C36.9466 27.5243 36.966 27.5809 36.9846 27.6377C37.0033 27.6945 37.0213 27.7515 37.0386 27.8088C37.0558 27.866 37.0723 27.9235 37.0881 27.9812C37.1039 28.0389 37.119 28.0967 37.1334 28.1548C37.1478 28.2128 37.1614 28.271 37.1743 28.3293C37.1872 28.3877 37.1994 28.4463 37.2109 28.5049C37.2223 28.5636 37.2331 28.6224 37.243 28.6813C37.253 28.7402 37.2623 28.7993 37.2708 28.8585C37.2793 28.9176 37.2871 28.9769 37.2941 29.0362C37.3011 29.0956 37.3074 29.155 37.3129 29.2145C37.3185 29.274 37.3233 29.3336 37.3273 29.3932C37.3314 29.4529 37.3347 29.5125 37.3373 29.5722C37.3398 29.6319 37.3416 29.6916 37.3427 29.7514C37.3438 29.8111 37.3441 29.8709 37.3437 29.9306C37.3433 29.9904 37.3421 30.0502 37.3402 30.1099C37.3382 30.1696 37.3356 30.2293 37.3322 30.289C37.3288 30.3486 37.3246 30.4083 37.3197 30.4679C37.3148 30.5274 37.3092 30.5869 37.3028 30.6463C37.113 32.5848 36.0657 34.5567 34.5493 35.8009C34.2887 35.8156 34.0271 35.8087 33.7662 35.8059C35.3988 34.4421 36.5416 32.8183 36.7297 30.656C36.8912 28.7984 36.3472 26.9808 35.1309 25.5542C33.8796 24.0866 32.205 23.3483 30.3018 23.194C29.9414 23.1806 29.5823 23.1972 29.2246 23.2438C29.1675 23.2517 29.1106 23.2603 29.0537 23.2695C28.9968 23.2788 28.9401 23.2888 28.8834 23.2994C28.8268 23.3101 28.7703 23.3214 28.7139 23.3335C28.6576 23.3455 28.6014 23.3583 28.5454 23.3717C28.4894 23.3851 28.4335 23.3991 28.3778 23.4139C28.3221 23.4286 28.2666 23.4441 28.2113 23.4602C28.156 23.4763 28.1009 23.493 28.046 23.5105C27.9911 23.5279 27.9364 23.5461 27.882 23.5648C27.8276 23.5836 27.7734 23.603 27.7194 23.6231C27.6654 23.6432 27.6117 23.664 27.5583 23.6854C27.5048 23.7068 27.4516 23.7288 27.3987 23.7515C27.3459 23.7742 27.2932 23.7975 27.2409 23.8215C27.1885 23.8455 27.1365 23.8701 27.0848 23.8953C27.0331 23.9206 26.9817 23.9464 26.9306 23.9729C26.8795 23.9994 26.8287 24.0265 26.7783 24.0542C26.7279 24.0819 26.6779 24.1102 26.6281 24.1392C26.5784 24.1681 26.5291 24.1976 26.4801 24.2278C26.4311 24.2579 26.3825 24.2886 26.3343 24.32C26.2861 24.3512 26.2382 24.3831 26.1908 24.4156C26.1434 24.4481 26.0963 24.4812 26.0497 24.5148C26.0031 24.5484 25.9569 24.5826 25.9111 24.6173C25.8653 24.6521 25.82 24.6874 25.7751 24.7232C25.7301 24.7591 25.6857 24.7954 25.6417 24.8324C25.5977 24.8693 25.5542 24.9068 25.5111 24.9447C25.468 24.9827 25.4254 25.0212 25.3832 25.0603C25.3411 25.0993 25.2995 25.1388 25.2583 25.1789C25.2171 25.2189 25.1765 25.2594 25.1363 25.3005C25.0962 25.3415 25.0566 25.383 25.0174 25.425C24.9783 25.467 24.9397 25.5094 24.9016 25.5523C24.8635 25.5953 24.826 25.6386 24.789 25.6824C24.752 25.7263 24.7155 25.7706 24.6796 25.8153C24.6437 25.8601 24.6083 25.9052 24.5735 25.9508C23.4584 27.4073 22.9859 29.374 23.2498 31.1769C23.2647 31.2736 23.2816 31.37 23.3005 31.466C23.3195 31.5621 23.3404 31.6577 23.3634 31.7528C23.3864 31.848 23.4114 31.9426 23.4384 32.0368C23.4654 32.1309 23.4944 32.2244 23.5254 32.3173C23.5563 32.4102 23.5892 32.5025 23.6241 32.594C23.659 32.6856 23.6958 32.7763 23.7345 32.8663C23.7732 32.9564 23.8138 33.0456 23.8563 33.1339C23.8988 33.2222 23.9431 33.3096 23.9893 33.3961C24.0355 33.4825 24.0836 33.568 24.1333 33.6524C24.1832 33.7369 24.2348 33.8203 24.2881 33.9027C24.3414 33.985 24.3965 34.0661 24.4533 34.1461C24.5101 34.2262 24.5685 34.305 24.6286 34.3826C24.6888 34.4601 24.7505 34.5364 24.8138 34.6115C24.8772 34.6865 24.9421 34.7601 25.0086 34.8325C25.075 34.9047 25.143 34.9756 25.2125 35.0451C25.282 35.1146 25.3529 35.1826 25.4253 35.2491C25.6679 35.4703 25.9425 35.6617 26.2067 35.8568C25.8925 35.8674 25.5797 35.8765 25.2651 35.8716C24.9437 35.5754 24.6206 35.2832 24.3331 34.9534C24.2724 34.8829 24.213 34.8112 24.155 34.7384C24.0971 34.6656 24.0406 34.5917 23.9855 34.5167C23.9305 34.4417 23.8769 34.3657 23.8248 34.2887C23.7727 34.2117 23.7221 34.1337 23.673 34.0547C23.6239 33.9757 23.5764 33.8958 23.5304 33.8151C23.4845 33.7343 23.4401 33.6526 23.3973 33.5702C23.3545 33.4876 23.3134 33.4044 23.2738 33.3203C23.2343 33.2362 23.1964 33.1515 23.1602 33.066C23.1239 32.9804 23.0894 32.8942 23.0565 32.8074C23.0236 32.7205 22.9924 32.6331 22.9629 32.545C22.9334 32.457 22.9057 32.3684 22.8797 32.2793C22.8536 32.1902 22.8293 32.1007 22.8068 32.0106C22.7843 31.9206 22.7635 31.8301 22.7445 31.7394C22.7254 31.6485 22.7082 31.5573 22.6927 31.4658C22.6772 31.3743 22.6635 31.2826 22.6517 31.1906C22.6398 31.0986 22.6296 31.0064 22.6213 30.914C22.6149 30.8506 22.6093 30.7871 22.6044 30.7236C22.5996 30.6601 22.5956 30.5966 22.5923 30.533C22.5891 30.4694 22.5867 30.4058 22.585 30.3421C22.5834 30.2785 22.5826 30.2148 22.5825 30.1511C22.5825 30.0874 22.5832 30.0238 22.5848 29.9601C22.5863 29.8964 22.5887 29.8328 22.5919 29.7692C22.595 29.7056 22.599 29.6421 22.6038 29.5786C22.6086 29.515 22.6141 29.4516 22.6205 29.3882C22.6268 29.3249 22.634 29.2616 22.6419 29.1984C22.6499 29.1352 22.6586 29.0721 22.6681 29.0091C22.6777 28.9462 22.6881 28.8833 22.6992 28.8206C22.7103 28.7579 22.7222 28.6953 22.7348 28.6329C22.7475 28.5705 22.761 28.5082 22.7753 28.4461C22.7896 28.384 22.8046 28.3221 22.8204 28.2604C22.8362 28.1987 22.8528 28.1372 22.8702 28.0759C22.8875 28.0145 22.9057 27.9535 22.9245 27.8926C22.9434 27.8317 22.9631 27.7711 22.9835 27.7107C23.004 27.6504 23.0252 27.5903 23.0471 27.5304C23.069 27.4706 23.0917 27.411 23.1151 27.3517C23.1386 27.2924 23.1627 27.2334 23.1876 27.1748C23.2126 27.1161 23.2382 27.0577 23.2646 26.9996C23.291 26.9416 23.3181 26.8839 23.3459 26.8265C23.3738 26.7691 23.4023 26.7121 23.4316 26.6554C23.4609 26.5987 23.4908 26.5424 23.5215 26.4865C23.5522 26.4306 23.5836 26.375 23.6157 26.3198C23.6478 26.2647 23.6805 26.21 23.714 26.1556C23.7475 26.1013 23.7816 26.0474 23.8164 25.9938C23.8512 25.9403 23.8867 25.8873 23.9229 25.8347C23.959 25.782 23.9958 25.7299 24.0333 25.6781C24.0708 25.6265 24.1089 25.5752 24.1476 25.5245C24.1864 25.4737 24.2258 25.4234 24.2658 25.3736C24.3058 25.3238 24.3464 25.2745 24.3877 25.2257C25.2529 24.2024 26.5864 23.3212 27.878 22.9443C28.4101 22.789 28.9556 22.7172 29.5064 22.6702Z" fill="#FEFEFE"/>
<path d="M41.6073 27.1165C41.6626 27.1758 41.6874 27.2644 41.7131 27.34C41.9245 27.9623 42.2681 29.7067 42.0909 30.3184C41.9951 30.649 41.7566 30.9555 41.5519 31.2285C41.2433 31.64 40.8612 32.0587 40.6357 32.5218C40.5391 32.7202 40.4793 32.9342 40.4882 33.1558C40.51 33.704 41.0609 34.7733 41.2626 35.346C41.1612 35.3614 41.0592 35.3767 40.9588 35.3979C40.646 35.4641 40.4233 35.5473 40.246 35.8251L40.2225 35.8628C39.9996 35.9794 36.9086 35.8917 36.5195 35.8194C36.6722 35.6335 36.84 35.4576 37.001 35.2787L37.4585 35.47C37.6693 35.568 37.8848 35.6436 38.1089 35.7055C38.3465 35.4172 38.5309 35.0739 38.7154 34.7499C38.4453 34.4578 38.0854 34.1981 37.7653 33.9608C38.1289 33.2764 38.3777 32.5536 38.5542 31.8018C38.9802 31.734 39.4234 31.7244 39.8534 31.6746C39.8611 31.3366 39.9142 31.0007 39.9196 30.6613C39.5325 30.4953 39.1175 30.376 38.7244 30.2186C38.7373 29.4928 38.6759 28.8058 38.5806 28.0883C38.8918 27.9578 39.3024 27.8372 39.5759 27.6439C39.6548 27.5881 39.6627 27.5601 39.675 27.4673C39.8168 27.401 40.0368 27.6961 40.2161 27.7267C40.6923 27.8079 41.2347 27.365 41.6073 27.1165Z" fill="#FEFEFE"/>
<path d="M36.0527 21.4127C36.3406 20.4864 36.4748 19.1714 36.5208 18.1948C36.5456 17.6687 36.5121 17.1033 36.6228 16.5869C36.6306 16.5514 36.6392 16.5161 36.6487 16.481C36.6583 16.4459 36.6686 16.411 36.6799 16.3765C36.6911 16.3419 36.7032 16.3076 36.7162 16.2736C36.7291 16.2396 36.7429 16.2059 36.7576 16.1726C36.7722 16.1393 36.7877 16.1063 36.804 16.0738C36.8202 16.0412 36.8373 16.0091 36.8552 15.9774C36.873 15.9456 36.8917 15.9143 36.9111 15.8836C36.9305 15.8527 36.9507 15.8224 36.9716 15.7926C36.9926 15.7627 37.0142 15.7334 37.0366 15.7047C37.059 15.6759 37.0821 15.6477 37.1059 15.6201C37.1297 15.5925 37.1542 15.5654 37.1794 15.539C37.2045 15.5125 37.2303 15.4867 37.2567 15.4616C37.2831 15.4364 37.3102 15.4119 37.3378 15.388C37.3654 15.3642 37.3937 15.341 37.4225 15.3186C37.4513 15.2961 37.4806 15.2744 37.5105 15.2533C37.5404 15.2323 37.5708 15.212 37.6017 15.1925C38.1161 14.865 38.7944 14.717 39.3949 14.8498C40.2179 15.0319 40.9438 15.6681 41.3737 16.3695C41.5517 16.6598 41.6746 16.9817 41.8579 17.2686L41.8744 17.2939C41.8813 17.9602 41.5828 18.5708 41.116 19.0399C40.6701 19.4879 40.1316 19.8689 39.6496 20.2804C38.8876 20.9309 38.2547 21.6117 37.6383 22.3957C37.3304 22.1924 37.0121 21.9516 36.6743 21.8008L36.5264 21.6505C36.3623 21.5871 36.1971 21.5128 36.0527 21.4127Z" fill="#EA891B"/>
<path d="M37.9142 18.5114C37.7123 18.2385 37.4379 17.792 37.4692 17.4383L37.5077 17.3707L37.575 17.353C37.8412 17.5624 37.6926 18.1521 38.1811 18.4012C38.3567 18.4908 39.0574 18.4199 39.0856 18.4567C39.1022 18.4784 39.096 18.5102 39.1012 18.5369C39.0635 18.6058 39.0417 18.6312 38.9645 18.6565C38.7121 18.7392 38.3913 18.6693 38.1451 18.6012C37.6655 19.6734 37.1954 20.7476 36.6743 21.8008L36.5264 21.6505C36.7994 21.0679 37.0646 20.4818 37.3219 19.8923C37.5258 19.4351 37.7461 18.983 37.9142 18.5114Z" fill="#16365A"/>
<path d="M26.868 35.8527C26.0361 35.3504 25.2026 34.6796 24.6622 33.8715C24.6314 33.8256 24.6012 33.7792 24.5715 33.7325C24.5418 33.6858 24.5127 33.6387 24.4842 33.5912C24.4557 33.5438 24.4278 33.496 24.4005 33.4479C24.3731 33.3998 24.3464 33.3514 24.3202 33.3026C24.2941 33.2539 24.2686 33.2048 24.2436 33.1554C24.2187 33.1061 24.1944 33.0564 24.1707 33.0065C24.1469 32.9565 24.1239 32.9062 24.1014 32.8557C24.0789 32.8052 24.0571 32.7544 24.0359 32.7034C24.0146 32.6523 23.9941 32.601 23.9741 32.5494C23.9542 32.4979 23.9349 32.4461 23.9162 32.394C23.8975 32.342 23.8795 32.2898 23.8621 32.2373C23.8447 32.1849 23.8279 32.1322 23.8119 32.0793C23.7958 32.0265 23.7803 31.9734 23.7656 31.9202C23.7508 31.8669 23.7367 31.8135 23.7232 31.7599C23.7098 31.7063 23.6969 31.6526 23.6848 31.5987C23.6727 31.5448 23.6612 31.4908 23.6504 31.4366C23.6396 31.3824 23.6295 31.3281 23.62 31.2737C23.6105 31.2193 23.6017 31.1648 23.5936 31.1101C23.5855 31.0555 23.578 31.0008 23.5712 30.946C23.5645 30.8912 23.5584 30.8363 23.553 30.7813C23.5475 30.7263 23.5428 30.6713 23.5387 30.6162C23.5347 30.5612 23.5313 30.506 23.5286 30.4509C23.5259 30.3957 23.5239 30.3405 23.5225 30.2853C23.5211 30.2301 23.5205 30.1749 23.5205 30.1197C23.5205 30.0645 23.5212 30.0093 23.5226 29.954C23.524 29.8988 23.526 29.8436 23.5288 29.7884C23.5315 29.7333 23.5349 29.6782 23.539 29.6231C23.5431 29.5681 23.5479 29.513 23.5534 29.4581C23.5588 29.4031 23.5649 29.3482 23.5717 29.2934C23.5786 29.2386 23.586 29.1839 23.5942 29.1293C23.6024 29.0746 23.6112 29.0201 23.6207 28.9657C23.6302 28.9113 23.6404 28.857 23.6512 28.8028C23.6623 28.7497 23.6742 28.6968 23.6866 28.644C23.699 28.5911 23.7121 28.5385 23.7259 28.486C23.7396 28.4335 23.754 28.3812 23.769 28.329C23.7841 28.2769 23.7998 28.2249 23.8161 28.1732C23.8324 28.1214 23.8494 28.0698 23.8669 28.0184C23.8845 27.9671 23.9028 27.916 23.9216 27.8651C23.9404 27.8141 23.9599 27.7635 23.98 27.713C24.0001 27.6626 24.0208 27.6124 24.0421 27.5624C24.0635 27.5125 24.0855 27.4628 24.108 27.4134C24.1305 27.364 24.1537 27.3149 24.1775 27.2661C24.2013 27.2172 24.2256 27.1687 24.2506 27.1204C24.2755 27.0721 24.3011 27.0242 24.3273 26.9766C24.3534 26.9289 24.3801 26.8816 24.4074 26.8346C24.4347 26.7876 24.4626 26.741 24.4911 26.6947C24.5196 26.6484 24.5486 26.6024 24.5782 26.5568C24.6078 26.5112 24.6379 26.466 24.6687 26.4211C24.6994 26.3762 24.7306 26.3317 24.7624 26.2876C24.7942 26.2435 24.8265 26.1997 24.8594 26.1564C24.8923 26.1131 24.9257 26.0701 24.9597 26.0277C24.9936 25.9851 25.0281 25.943 25.0631 25.9013C25.098 25.8596 25.1335 25.8184 25.1695 25.7776C25.2055 25.7367 25.242 25.6963 25.279 25.6564C25.316 25.6165 25.3535 25.577 25.3914 25.5379C25.4294 25.4989 25.4678 25.4603 25.5067 25.4222C25.5456 25.3841 25.585 25.3465 25.6249 25.3094C25.6647 25.2722 25.705 25.2355 25.7457 25.1994C25.7865 25.1632 25.8277 25.1276 25.8693 25.0924C25.9109 25.0572 25.953 25.0226 25.9954 24.9884C26.0379 24.9543 26.0808 24.9206 26.1241 24.8876C26.1674 24.8544 26.2111 24.8219 26.2552 24.7898C26.2993 24.7577 26.3438 24.7262 26.3887 24.6953C26.4336 24.6643 26.4789 24.6339 26.5245 24.604C27.9014 23.7064 29.6159 23.3285 31.2367 23.6622C32.3352 23.8884 33.3119 24.3563 34.1595 25.088C34.3676 25.2677 34.609 25.4775 34.7599 25.7062L34.8319 25.7535C34.8314 25.8359 34.8103 25.8567 34.7802 25.9299C34.7754 25.9415 34.7727 25.9539 34.7691 25.9659L34.9096 25.8407C34.9689 25.8677 34.9573 25.8541 34.9952 25.899C36.1061 27.2138 36.5601 29.1069 36.3689 30.7863C36.3579 30.8767 36.3452 30.9669 36.3306 31.0568C36.316 31.1467 36.2996 31.2363 36.2813 31.3256C36.2631 31.4148 36.243 31.5036 36.2211 31.5921C36.1992 31.6805 36.1755 31.7685 36.15 31.856C36.1245 31.9435 36.0973 32.0304 36.0682 32.1168C36.0392 32.2032 36.0084 32.289 35.9759 32.3741C35.9433 32.4593 35.9091 32.5438 35.8731 32.6275C35.837 32.7113 35.7993 32.7943 35.76 32.8766C35.7206 32.9588 35.6795 33.0403 35.6368 33.1209C35.5941 33.2015 35.5497 33.2812 35.5038 33.36C35.4578 33.4389 35.4102 33.5167 35.3611 33.5937C35.3119 33.6706 35.2612 33.7464 35.2089 33.8213C35.1567 33.8962 35.1029 33.97 35.0476 34.0427C34.9923 34.1154 34.9356 34.187 34.8774 34.2574C34.8192 34.3278 34.7596 34.397 34.6985 34.4651C34.6375 34.5331 34.5751 34.5998 34.5113 34.6654C34.1065 35.0785 33.6382 35.4378 33.1856 35.797C31.0795 35.7929 28.9736 35.8115 26.868 35.8527Z" fill="#FEFEFE"/>
<path d="M29.8968 23.9495L30.0113 23.9913C30.0992 24.0967 30.0948 24.3185 30.0857 24.4504C30.0765 24.5837 30.0919 24.7294 29.9987 24.8347C29.977 24.8287 29.9423 24.8203 29.9234 24.8093C29.8586 24.7716 29.8423 24.7118 29.8304 24.6431C29.7986 24.4572 29.7809 24.1026 29.8968 23.9495Z" fill="#16365A"/>
<path d="M24.7026 27.3486C24.8947 27.3743 25.2825 27.5662 25.3987 27.7184C25.4583 27.7963 25.4408 27.8227 25.4227 27.9118C25.4066 27.9138 25.3475 27.9227 25.3262 27.9211C25.1532 27.9076 24.8659 27.7088 24.7482 27.5836C24.6717 27.5022 24.6929 27.4507 24.7026 27.3486Z" fill="#16365A"/>
<path d="M26.884 24.9156C26.9118 24.9156 26.933 24.9145 26.9609 24.92C27.1052 24.9485 27.3618 25.3504 27.4259 25.4854C27.4684 25.5751 27.4464 25.61 27.4104 25.6986C27.38 25.697 27.3493 25.6968 27.3197 25.6875C27.173 25.6412 26.9403 25.2736 26.8769 25.1321C26.8352 25.039 26.8472 25.0082 26.884 24.9156Z" fill="#16365A"/>
<path d="M25.3548 32.7305C25.429 32.7306 25.4821 32.7514 25.5358 32.7996L25.5341 32.8537C25.401 33.0722 25.1214 33.2082 24.9062 33.335L24.8376 33.3543C24.782 33.309 24.7794 33.3011 24.7559 33.2375C24.8094 33.0539 25.1953 32.8418 25.3548 32.7305Z" fill="#16365A"/>
<path d="M32.9283 24.6997C32.9876 24.7333 33.0154 24.7614 33.0611 24.8102C33.0871 24.9993 32.7421 25.4085 32.6338 25.5756C32.6275 25.5731 32.6209 25.571 32.6148 25.568C32.5346 25.5295 32.5074 25.5163 32.4731 25.4339C32.4991 25.1764 32.772 24.9019 32.9283 24.6997Z" fill="#16365A"/>
<path d="M34.9938 30.457C35.2699 30.4713 35.5977 30.43 35.8554 30.5352C35.9233 30.6118 35.9191 30.6379 35.9334 30.7361C35.6466 30.7402 35.29 30.7832 35.0246 30.6643C34.9649 30.5821 34.9839 30.5553 34.9938 30.457Z" fill="#16365A"/>
<path d="M24.7251 30.1903C24.7971 30.177 24.8369 30.1767 24.9075 30.1965C24.9654 30.2654 24.9843 30.2712 24.9857 30.3594C24.8411 30.5067 24.4943 30.4879 24.2932 30.5043C24.2686 30.509 24.2147 30.5204 24.1908 30.5195C24.1233 30.517 24.1012 30.4648 24.0654 30.4175L24.0744 30.3569C24.2179 30.217 24.5341 30.2159 24.7251 30.1903Z" fill="#16365A"/>
<path d="M27.2615 34.3442C27.3357 34.3698 27.367 34.3823 27.413 34.4465C27.4162 34.634 26.9953 35.0155 26.8642 35.1726C26.8552 35.1696 26.8457 35.1679 26.8372 35.1638C26.7534 35.1234 26.7434 35.1181 26.7188 35.0339C26.7827 34.7665 27.0721 34.5374 27.2615 34.3442Z" fill="#16365A"/>
<path d="M35.3645 27.6211L35.444 27.6327C35.4904 27.7049 35.4915 27.7088 35.486 27.7942C35.3962 27.9319 34.8695 28.0583 34.6957 28.1175C34.6763 28.1073 34.6552 28.0976 34.6394 28.0819C34.5837 28.0268 34.5806 28.0053 34.5839 27.9334C34.7226 27.7644 35.1506 27.6848 35.3645 27.6211Z" fill="#16365A"/>
<path d="M33.9141 33.0288C34.1473 33.1149 34.4288 33.4302 34.5862 33.6231C34.5777 33.7151 34.5349 33.7536 34.4813 33.8279C34.4619 33.8222 34.4415 33.8193 34.4231 33.8109C34.294 33.752 33.8613 33.3175 33.8377 33.1787C33.8293 33.1288 33.8869 33.0696 33.9141 33.0288Z" fill="#16365A"/>
<path d="M34.7691 25.966C34.7267 26.1189 31.5717 30.2685 31.2825 30.6324C31.1579 30.7892 31.0279 30.941 30.8826 31.0793C30.5008 31.4426 29.9905 31.6985 29.5409 31.9719L27.3217 33.3098C26.7858 33.6316 26.2573 34.0113 25.701 34.293C25.563 34.3629 25.4416 34.4144 25.2845 34.4117L25.2563 34.375C25.2876 34.2738 26.3526 32.8672 26.4969 32.6669C26.9533 32.0333 27.4169 31.4031 27.8598 30.7602C28.1604 30.3235 28.4309 29.8251 28.801 29.4436C29.1615 29.0721 29.771 28.8175 30.2196 28.5484L32.6553 27.0591C33.356 26.623 34.0374 26.0986 34.7599 25.7063L34.8319 25.7535C34.8314 25.836 34.8103 25.8568 34.7802 25.9299C34.7754 25.9415 34.7728 25.954 34.7691 25.966Z" fill="#16365A"/>
<path d="M34.1384 26.3728L34.1555 26.39C34.1516 26.4096 34.1498 26.4297 34.1438 26.4488C34.0874 26.6285 33.1905 27.71 33.0138 27.9465C32.5536 28.5701 32.0881 29.1897 31.6174 29.8055C31.3178 30.1983 31.0264 30.6252 30.6619 30.9611C30.2686 31.3236 29.7163 31.5544 29.2551 31.8293C28.2021 32.4568 27.1415 33.0733 26.1108 33.7364C26.089 33.7177 26.1012 33.732 26.0923 33.6833C26.6633 32.7699 27.3163 31.9052 27.9326 31.022C28.2457 30.5734 28.5373 29.9908 28.9411 29.6247C29.5138 29.1054 30.3464 28.7038 31.0164 28.3066C32.0658 27.6844 33.1254 27.0518 34.1384 26.3728Z" fill="#EA891B"/>
<path d="M29.6737 29.4362C29.8506 29.4187 30.0102 29.4233 30.1739 29.4987C30.3758 29.5918 30.526 29.7536 30.5982 29.9632C30.6068 29.988 30.6142 30.0132 30.6202 30.0387C30.6263 30.0643 30.631 30.0902 30.6344 30.1162C30.6378 30.1423 30.6398 30.1684 30.6405 30.1947C30.6413 30.221 30.6407 30.2472 30.6387 30.2734C30.6367 30.2996 30.6334 30.3256 30.6288 30.3515C30.6242 30.3773 30.6182 30.4029 30.611 30.4282C30.6037 30.4534 30.5951 30.4783 30.5854 30.5027C30.5755 30.5271 30.5645 30.5509 30.5523 30.5742C30.4259 30.8101 30.232 30.9128 29.9848 30.9928C29.8175 31.0041 29.6689 31.0093 29.5119 30.9422C29.3073 30.8548 29.1504 30.6959 29.0707 30.4892C29.061 30.4648 29.0527 30.4399 29.0457 30.4146C29.0387 30.3893 29.0331 30.3637 29.0288 30.3378C29.0244 30.312 29.0215 30.2859 29.0199 30.2598C29.0183 30.2335 29.0181 30.2073 29.0193 30.1811C29.0204 30.1549 29.023 30.1289 29.0269 30.1029C29.0308 30.077 29.036 30.0513 29.0427 30.0259C29.0492 30.0005 29.0571 29.9755 29.0664 29.9509C29.0756 29.9263 29.0861 29.9023 29.0978 29.8788C29.2211 29.6358 29.4256 29.5255 29.6737 29.4362Z" fill="url(#paint0_linear_17_108)"/>
<path d="M29.7739 29.655C29.8879 29.6565 30.0001 29.6568 30.1049 29.7075C30.1216 29.7154 30.1379 29.7242 30.1537 29.7337C30.1695 29.7433 30.1848 29.7536 30.1995 29.7648C30.2143 29.7759 30.2284 29.7878 30.2419 29.8003C30.2554 29.8129 30.2682 29.8261 30.2803 29.84C30.2925 29.8539 30.3038 29.8684 30.3145 29.8835C30.3251 29.8985 30.3349 29.914 30.3439 29.9301C30.353 29.9462 30.3611 29.9626 30.3684 29.9795C30.3757 29.9964 30.3821 30.0137 30.3876 30.0312C30.4361 30.1869 30.4093 30.3546 30.3278 30.4944C30.2221 30.6761 30.0648 30.7515 29.8679 30.8038C29.7717 30.799 29.6862 30.7877 29.5968 30.7496C29.4457 30.6853 29.3233 30.5702 29.2679 30.4149C29.2142 30.2644 29.2327 30.0995 29.3117 29.9613C29.4169 29.7771 29.5765 29.7079 29.7739 29.655Z" fill="#FEFEFE"/>
<path d="M18.014 43L20.254 38.1H20.765L23.005 43H22.459L20.401 38.401H20.611L18.553 43H18.014ZM18.896 41.691L19.05 41.271H21.899L22.053 41.691H18.896ZM25.1612 43.035C24.8486 43.035 24.5756 42.9767 24.3422 42.86C24.1089 42.7433 23.9269 42.5683 23.7962 42.335C23.6702 42.1017 23.6072 41.81 23.6072 41.46V39.325H24.1042V41.404C24.1042 41.796 24.1999 42.0923 24.3912 42.293C24.5872 42.489 24.8602 42.587 25.2102 42.587C25.4669 42.587 25.6886 42.5357 25.8752 42.433C26.0666 42.3257 26.2112 42.1717 26.3092 41.971C26.4119 41.7703 26.4632 41.53 26.4632 41.25V39.325H26.9602V43H26.4842V41.992L26.5612 42.174C26.4446 42.4447 26.2626 42.657 26.0152 42.811C25.7726 42.9603 25.4879 43.035 25.1612 43.035ZM28.3453 43V39.325H28.8213V40.326L28.7723 40.151C28.875 39.871 29.0477 39.6587 29.2903 39.514C29.533 39.3647 29.834 39.29 30.1933 39.29V39.773C30.1747 39.773 30.156 39.773 30.1373 39.773C30.1187 39.7683 30.1 39.766 30.0813 39.766C29.694 39.766 29.3907 39.885 29.1713 40.123C28.952 40.3563 28.8423 40.69 28.8423 41.124V43H28.3453ZM33.1298 43V42.188L33.1088 42.055V40.697C33.1088 40.3843 33.0201 40.144 32.8428 39.976C32.6701 39.808 32.4111 39.724 32.0658 39.724C31.8278 39.724 31.6015 39.7637 31.3868 39.843C31.1721 39.9223 30.9901 40.0273 30.8408 40.158L30.6168 39.787C30.8035 39.6283 31.0275 39.507 31.2888 39.423C31.5501 39.3343 31.8255 39.29 32.1148 39.29C32.5908 39.29 32.9571 39.409 33.2138 39.647C33.4751 39.8803 33.6058 40.2373 33.6058 40.718V43H33.1298ZM31.8628 43.035C31.5875 43.035 31.3471 42.9907 31.1418 42.902C30.9411 42.8087 30.7871 42.6827 30.6798 42.524C30.5725 42.3607 30.5188 42.174 30.5188 41.964C30.5188 41.7727 30.5631 41.6 30.6518 41.446C30.7451 41.2873 30.8945 41.1613 31.0998 41.068C31.3098 40.97 31.5898 40.921 31.9398 40.921H33.2068V41.292H31.9538C31.5991 41.292 31.3518 41.355 31.2118 41.481C31.0765 41.607 31.0088 41.7633 31.0088 41.95C31.0088 42.16 31.0905 42.328 31.2538 42.454C31.4171 42.58 31.6458 42.643 31.9398 42.643C32.2198 42.643 32.4601 42.58 32.6608 42.454C32.8661 42.3233 33.0155 42.1367 33.1088 41.894L33.2208 42.237C33.1275 42.4797 32.9641 42.6733 32.7308 42.818C32.5021 42.9627 32.2128 43.035 31.8628 43.035ZM34.2767 43L36.5167 38.1H37.0277L39.2677 43H38.7217L36.6637 38.401H36.8737L34.8157 43H34.2767ZM35.1587 41.691L35.3127 41.271H38.1617L38.3157 41.691H35.1587ZM39.9733 43V39.325H40.4493V40.326L40.4003 40.151C40.5029 39.871 40.6756 39.6587 40.9183 39.514C41.1609 39.3647 41.4619 39.29 41.8213 39.29V39.773C41.8026 39.773 41.7839 39.773 41.7653 39.773C41.7466 39.7683 41.7279 39.766 41.7093 39.766C41.3219 39.766 41.0186 39.885 40.7993 40.123C40.5799 40.3563 40.4703 40.69 40.4703 41.124V43H39.9733ZM44.22 43.035C43.856 43.035 43.5293 42.9557 43.24 42.797C42.9553 42.6337 42.7313 42.412 42.568 42.132C42.4046 41.8473 42.323 41.523 42.323 41.159C42.323 40.7903 42.4046 40.466 42.568 40.186C42.7313 39.906 42.9553 39.6867 43.24 39.528C43.5293 39.3693 43.856 39.29 44.22 39.29C44.5326 39.29 44.815 39.3507 45.067 39.472C45.319 39.5933 45.5173 39.7753 45.662 40.018L45.291 40.27C45.165 40.0833 45.0086 39.9457 44.822 39.857C44.6353 39.7683 44.4323 39.724 44.213 39.724C43.9516 39.724 43.716 39.7847 43.506 39.906C43.296 40.0227 43.1303 40.1883 43.009 40.403C42.8876 40.6177 42.827 40.8697 42.827 41.159C42.827 41.4483 42.8876 41.7003 43.009 41.915C43.1303 42.1297 43.296 42.2977 43.506 42.419C43.716 42.5357 43.9516 42.594 44.213 42.594C44.4323 42.594 44.6353 42.5497 44.822 42.461C45.0086 42.3723 45.165 42.237 45.291 42.055L45.662 42.307C45.5173 42.545 45.319 42.727 45.067 42.853C44.815 42.9743 44.5326 43.035 44.22 43.035Z" fill="#EA891B"/>
<defs>
<linearGradient id="paint0_linear_17_108" x1="30.5326" y1="30.4363" x2="29.1019" y2="29.9511" gradientUnits="userSpaceOnUse">
<stop stop-color="#2C383C"/>
<stop offset="1" stop-color="#0E2C40"/>
</linearGradient>
</defs>
</svg>
